<?xml version="1.0" encoding="UTF-8"?>
<svg id="Layer_2" data-name="Layer 2" xmlns="http://www.w3.org/2000/svg" viewBox="0 0 807.71 454.44">
  <defs>
    <style>
      .cls-1 {
        fill: #fff;
      }
    </style>
  </defs>
  <g id="Layer_1-2" data-name="Layer 1">
    <g id="_96sLcX.tif" data-name="96sLcX.tif">
      <g>
        <path class="cls-1" d="M807.71,0v454.44H0V0h807.71ZM147.37,240.67h41.09l-2.1,2.83-73-1.43,12.74-4.22-52.42,1.42,12.74,1.42c.57,1.5-4.67,2.82-4.95,2.82h-26.92c-.28,0-5.52,1.32-4.95,2.82l43.91,4.25c-18.87-.42-40.95.57-59.31-3.73-8.33-1.95-11.69-6.91-21.51-4.04-1.83.54-3.38.33-2.77,2.81,1.54,2.95,12.78,4.25,16.47,4.79,30.84,4.54,64.95,3.08,96.24,4.37,173.76,7.16,347.51,7.31,521.35,0,16.89-.71,37.56.53,53.96-1.31,2.12-.24,4.37-.29,4.91-2.87l-26.92-5.66,107.68,1.39c.1-2.1-5-2.45-6.53-2.65-46.78-6.08-101.09-.29-148.68-2.94l-11.99-2.89h69.43c-.01-2.4-4.71-2.71-6.37-2.84-27.34-2.21-63.16,2.82-88.1-11.08-3.85-2.15-7.45-4.69-10.38-8.03,5.13-1.67,9.29,5.64,14.6,8.07,18.84,8.59,51.33,8.49,71.83,7.52-7.23-4.22-18.12-2.52-26.03-3.72-43.73-6.66-38.89-16.98-60.39-48.29-23.77-34.62-51.1-67.4-90.19-85.83-77.62-36.58-172.55-15.16-224.98,52.31-16.13,20.75-22.28,49.67-37.06,70.57-3.24,4.59-10.23,11.54-16.21,11.43-.96,7.28,10.91-1.63,12.75,2.8-22.46,5.73-45.77,4.99-68.7,7.11-1.98.18-8.57.67-9.23,2.82ZM546.98,270.41l-1.41-4.25-2.85,11.3,4.27-1.05v-3.19c3.77.55,8.23,3.5,11.29-.7-3.32-4.24-6.78-2.94-11.3-2.11ZM277.35,276.47c-2.55-2.16-7.78-3.11-10.94-1.81-1.63,1.82,6.67,5.98,2.89,9.23l-17.08.66c-1.02,14.01,2.99,28.41,9.68,40.6,64.17,116.91,258.28,105.82,301.31-23.66,1.23-3.69,5.85-16,1.2-18.07-1.7-.76-22.42-3.32-23.56-2.97l-13.01,23.92-.72-5.66-8.48,5.66,1.07-3.57-3.19-2.08c-3.03.66-17.72,22.26-21.93,26.24-47.35,44.74-129.34,43.04-173.66-4.99-9.63-10.43-15.44-23.97-25.49-33.99l2.12,11.31-7.79-9.9.71,7.06h-2.81c-2.22-4.11-7.29-15.39-10.33-17.98ZM518.09,288.3c3.58-5.59-2.44-6.27-3.69-5.17-.2.18-.21,3.47-1.13,5.21-37.44,71.02-137.66,77.4-184.46,12.09-2.12-2.96-6.68-13.81-7.33-14.28-1.33-.94-4.52-1.09-4.09,1.93.38,2.67,9.63,17.48,11.84,20.04,41.91,48.39,116.24,54.68,164.63,11.84,9.17-8.12,17.8-21.64,24.22-31.68Z"/>
        <path d="M147.37,240.67c.66-2.15,7.25-2.63,9.23-2.82,22.94-2.12,46.24-1.38,68.7-7.11-1.83-4.43-13.71,4.48-12.75-2.8,5.98.11,12.97-6.84,16.21-11.43,14.78-20.9,20.93-49.82,37.06-70.57,52.43-67.46,147.36-88.89,224.98-52.31,39.1,18.43,66.42,51.2,90.19,85.83,21.5,31.31,16.65,41.63,60.39,48.29,7.91,1.2,18.8-.5,26.03,3.72-20.49.97-52.99,1.07-71.83-7.52-5.31-2.42-9.47-9.74-14.6-8.07,2.93,3.34,6.53,5.88,10.38,8.03,24.94,13.9,60.76,8.87,88.1,11.08,1.66.13,6.36.43,6.37,2.84h-69.43l11.99,2.89c47.59,2.65,101.91-3.15,148.68,2.94,1.53.2,6.63.55,6.53,2.65l-107.68-1.39,26.92,5.66c-.53,2.57-2.79,2.63-4.91,2.87-16.4,1.84-37.07.6-53.96,1.31-173.84,7.31-347.6,7.16-521.35,0-31.28-1.29-65.4.17-96.24-4.37-3.68-.54-14.92-1.85-16.47-4.79-.61-2.48.94-2.27,2.77-2.81,9.82-2.87,13.18,2.09,21.51,4.04,18.36,4.3,40.43,3.31,59.31,3.73l-43.91-4.25c-.57-1.5,4.67-2.82,4.95-2.82h26.92c.28,0,5.53-1.32,4.95-2.82l-12.74-1.42,52.42-1.42-12.74,4.22,73,1.43,2.1-2.83h-41.09ZM467.61,104.78c-35.33-11.77-74.7-11.94-110.22-.42l-15.88,7.47c27.8-8.61,56.3-14.67,85.71-12.71,12.2.81,24.14,4.24,36.08,6.44,1.47.27,4.64,1.86,4.31-.77ZM571.05,206.69c-4.24-8.99-6.89-18.87-11.08-27.85-7.72-16.56-26.38-38.65-41.5-49.14-4.79-3.33-12.64-7.44-18.26-9.35,5.73,7.38,16,11.82,22.71,17.64,7.37,6.39,22.76,24.74,28.07,32.77,7.21,10.89,10.4,26.86,20.05,35.93ZM516.34,192.02c-49.72-87.02-175.21-80.48-219.18,6.54-2.33,4.61-13.77,39.43-15.88,39.25-2.71-6.22-3.54-2.57-5.49-3.1-5.68-1.57-2.58-19.22-4.42-23.76-9.19,9.99-12.1,24.5-27.27,27.97-3.86.88-11.07-.98-13.12,3.15l72.69.09c5.76-5.55,4.14-13.1,5.9-19.95,26.46-102.58,160.6-112.16,209.03-21.55l7.83,15.93c-.68-7.6-4.26-16.33-7.84-23.01-.47-.87-2-1.13-2.25-1.57ZM516.34,209.01c-47.6-92.34-176.17-87.13-201.12,13.19-1.41,5.69-.74,17.71-5.5,21.4-1.91,1.48-5.22.31-5.05,2.72l223.88-2.83c-5.81-5.84-4.37-14.42-6.36-22.65-1.52-6.26-3.86-7.97-5.85-11.83Z"/>
        <path d="M277.35,276.47c3.04,2.59,8.12,13.87,10.33,17.98h2.81s-.71-7.06-.71-7.06l7.79,9.9-2.12-11.31c10.06,10.02,15.86,23.56,25.49,33.99,44.32,48.03,126.32,49.73,173.66,4.99,4.21-3.98,18.9-25.58,21.93-26.24l3.19,2.08-1.07,3.57,8.48-5.66.72,5.66,13.01-23.92c1.14-.35,21.86,2.22,23.56,2.97,4.66,2.07.03,14.38-1.2,18.07-43.02,129.48-237.14,140.57-301.31,23.66-6.69-12.19-10.7-26.59-9.68-40.6l17.08-.66c3.77-3.25-4.52-7.41-2.89-9.23,3.16-1.3,8.39-.35,10.94,1.81ZM293.3,351.1c-3.8-3.38-3.13,3,2.16,7.06,13.19,10.13,26.78,20.33,42.27,27.14,55.44,24.36,124.8,19.25,172.4-19.35-1.25-2.22-3.2.47-4.41,1.26-5.45,3.58-10.49,7.54-16.3,10.61-61.46,32.47-141.18,23.86-193.38-21.67-1.96-1.71-2.5-4.84-2.73-5.05ZM446.36,376.59c-20.79,3.57-40.83,3.09-61.66,1.41-1.56-.13-5.29-1.04-4.93,1.39,18.5,3.31,38.18,4.66,56.73.78,2.51-.53,8.66-1.31,9.86-3.58Z"/>
        <path d="M518.09,288.3c-6.42,10.03-15.05,23.55-24.22,31.68-48.39,42.85-122.73,36.55-164.63-11.84-2.22-2.56-11.46-17.37-11.84-20.04-.43-3.03,2.75-2.88,4.09-1.93.66.46,5.21,11.32,7.33,14.28,46.8,65.31,147.02,58.92,184.46-12.09.92-1.74.93-5.04,1.13-5.21,1.25-1.1,7.27-.43,3.69,5.17Z"/>
        <path d="M546.98,270.41c4.53-.83,7.98-2.13,11.3,2.11-3.06,4.2-7.52,1.26-11.3.7v3.19s-4.26,1.05-4.26,1.05l2.85-11.3,1.41,4.25Z"/>
        <path class="cls-1" d="M516.34,209.01c1.99,3.86,4.33,5.57,5.85,11.83,1.99,8.23.56,16.81,6.36,22.65l-223.88,2.83c-.18-2.41,3.13-1.23,5.05-2.72,4.77-3.69,4.09-15.72,5.5-21.4,24.95-100.32,153.53-105.53,201.12-13.19Z"/>
        <path class="cls-1" d="M516.34,192.02c.25.44,1.79.7,2.25,1.57,3.58,6.68,7.16,15.41,7.84,23.01l-7.83-15.93c-48.43-90.62-182.57-81.03-209.03,21.55-1.77,6.85-.14,14.4-5.9,19.95l-72.69-.09c2.05-4.14,9.25-2.27,13.12-3.15,15.16-3.47,18.08-17.98,27.27-27.97,1.84,4.54-1.26,22.2,4.42,23.76,1.95.54,2.79-3.12,5.49,3.1,2.12.18,13.55-34.64,15.88-39.25,43.97-87.02,169.45-93.56,219.18-6.54Z"/>
        <path class="cls-1" d="M571.05,206.69c-9.65-9.07-12.84-25.04-20.05-35.93-5.32-8.03-20.7-26.38-28.07-32.77-6.71-5.82-16.98-10.26-22.71-17.64,5.62,1.91,13.47,6.02,18.26,9.35,15.12,10.49,33.77,32.59,41.5,49.14,4.19,8.98,6.84,18.86,11.08,27.85Z"/>
        <path class="cls-1" d="M467.61,104.78c.33,2.64-2.84,1.05-4.31.77-11.93-2.2-23.88-5.63-36.08-6.44-29.41-1.95-57.91,4.1-85.71,12.71l15.88-7.47c35.52-11.51,74.89-11.35,110.22.42Z"/>
        <path class="cls-1" d="M293.3,351.1c.23.2.78,3.34,2.73,5.05,52.2,45.53,131.92,54.14,193.38,21.67,5.82-3.07,10.85-7.03,16.3-10.61,1.21-.79,3.16-3.48,4.41-1.26-47.59,38.6-116.96,43.72-172.4,19.35-15.5-6.81-29.08-17.01-42.27-27.14-5.29-4.06-5.96-10.45-2.16-7.06Z"/>
        <path class="cls-1" d="M446.36,376.59c-1.2,2.27-7.34,3.05-9.86,3.58-18.55,3.88-38.23,2.53-56.73-.78-.36-2.42,3.37-1.51,4.93-1.39,20.83,1.68,40.87,2.15,61.66-1.41Z"/>
      </g>
    </g>
  </g>
</svg>