<svg width="441" height="188" viewBox="0 0 441 188" fill="none" xmlns="http://www.w3.org/2000/svg">
<g filter="url(#filter0_f_503_1339)">
<ellipse cx="327.948" cy="60.5907" rx="327.948" ry="60.5907" transform="matrix(-0.999959 0.00903951 0.00903951 0.999959 548.37 148)" fill="url(#paint0_radial_503_1339)" fill-opacity="0.51"/>
<path d="M220.44 151.464C129.904 152.283 48.0132 159.804 -11.1942 171.297C-40.8018 177.045 -64.7125 183.781 -81.1904 191.157C-89.4311 194.845 -95.7855 198.683 -100.062 202.615C-104.34 206.548 -106.488 210.527 -106.452 214.513C-106.416 218.498 -104.196 222.438 -99.8481 226.293C-95.501 230.148 -89.0783 233.868 -80.7723 237.408C-64.1637 244.484 -40.1353 250.788 -10.4285 255.999C48.977 266.42 130.99 272.46 221.526 271.641C312.062 270.823 393.953 263.302 453.16 251.808C482.768 246.061 506.678 239.324 523.156 231.948C531.397 228.259 537.75 224.423 542.027 220.491C546.305 216.558 548.454 212.578 548.418 208.593C548.382 204.607 546.162 200.668 541.813 196.812C537.466 192.958 531.044 189.236 522.738 185.697C506.13 178.62 482.101 172.318 452.394 167.107C392.989 156.685 310.976 150.646 220.44 151.464Z" stroke="black"/>
</g>
<defs>
<filter id="filter0_f_503_1339" x="-256.953" y="0.890625" width="955.871" height="421.324" filterUnits="userSpaceOnUse" color-interpolation-filters="sRGB">
<feFlood flood-opacity="0" result="BackgroundImageFix"/>
<feBlend mode="normal" in="SourceGraphic" in2="BackgroundImageFix" result="shape"/>
<feGaussianBlur stdDeviation="75" result="effect1_foregroundBlur_503_1339"/>
</filter>
<radialGradient id="paint0_radial_503_1339" cx="0" cy="0" r="1" gradientUnits="userSpaceOnUse" gradientTransform="translate(327.948 60.5907) rotate(90) scale(60.5907 327.948)">
<stop stop-color="#ED772F"/>
<stop offset="0.7499" stop-color="#AFAD96"/>
<stop offset="0.831731" stop-color="#F29337"/>
<stop offset="1" stop-color="#ED642D"/>
</radialGradient>
</defs>
</svg>
