<svg xmlns="http://www.w3.org/2000/svg" xmlns:xlink="http://www.w3.org/1999/xlink" version="1.1" id="Calque_1" x="0px" y="0px" viewBox="0 0 72 72" style="enable-background:new 0 0 72 72;" xml:space="preserve">
<style type="text/css">
	.st0{fill:#F7DF1E;}
</style>
    <rect x="0" y="0" class="st0" width="72" height="72"/>
    <path d="M48.3,56.3c1.5,2.4,3.3,4.1,6.7,4.1c2.8,0,4.6-1.4,4.6-3.3c0-2.3-1.8-3.1-4.9-4.5L53,51.8c-4.9-2.1-8.1-4.7-8.1-10.2  c0-5.1,3.9-8.9,9.9-8.9c4.3,0,7.4,1.5,9.6,5.4l-5.3,3.4c-1.2-2.1-2.4-2.9-4.4-2.9c-2,0-3.2,1.3-3.2,2.9c0,2,1.3,2.9,4.2,4.1l1.7,0.7  c5.7,2.5,9,5,9,10.6c0,6.1-4.8,9.4-11.2,9.4c-6.3,0-10.3-3-12.3-6.9L48.3,56.3z M24.4,56.8c1.1,1.9,2,3.5,4.4,3.5  c2.2,0,3.6-0.9,3.6-4.3v-23h6.8v23.1c0,7-4.1,10.2-10.1,10.2c-5.4,0-8.6-2.8-10.1-6.2L24.4,56.8z"/>
</svg>
