<?xml version="1.0" encoding="UTF-8"?>
<svg id="Layer_2" data-name="Layer 2" xmlns="http://www.w3.org/2000/svg" viewBox="0 0 338.92 338.92">
  <defs>
    <style>
      .cls-1 {
        fill: #313131;
      }
    </style>
  </defs>
  <g id="Lines">
    <g>
      <path class="cls-1" d="M276.96,134.8l-2.1.31c-24.35,3.62-28.09,4.17-54.58,14.05-5.63,2.1-9.92,2.86-13.17,2.86-3.53,0-5.84-.89-7.33-1.93-2.25-1.56-3.43-3.96-3.43-6.93,0-7.91,13.63-19.23,40.5-33.66,24.97-13.41,60.18-28.76,102.08-44.53V1.74c-30.55,26.51-74.92,45.62-121.81,65.81C143.56,99.24,60.64,134.95,0,209.38v54.59c68.51,28.89,116.27,36.24,217.29-5.25,27.92-11.47,63.1-35.97,91.36-55.65,11.12-7.75,21.43-14.92,30.27-20.62v-49.26c-21.06-1.91-41.87-1.37-61.96,1.62ZM292.37,173.07c-3.02,4.81-7.02,8.92-11.1,12.8-11,10.21-23.13,19-35.58,27.33-38.36,24.54-101.98,51.09-147.9,46.29-9.38-1.23-19.09-4.36-25.7-11.5-8.57-10.2-12.97-24.01-11.32-37.28,8.44-61.14,119.53-112.82,172.84-130.49,14.23-4.56,28.66-8.97,43.64-10.2.3-.02.57.21.59.51.02.31-.21.57-.52.59-51.44,7.54-247.47,100.42-198.34,168.14,14.82,18.11,62.11,7.2,82.29,1.15,34.65-10.29,68.44-25.43,97.73-46.82,8.14-6.06,26.42-19.37,29.03-28.54.02-.12.04-.02.11.05.06.07.11.03-.05-.13-.15-.16-.5-.39-.97-.61-2.42-1.08-5.76-1.41-8.65-1.51-6.76-.19-13.98.74-21.09,2-28.9,5.37-56.93,15.9-82.84,29.77-6.51,3.54-12.87,7.41-18.95,11.7-.53.42-1.28-.38-.69-.87,30.43-23.87,84.77-47.77,123.57-49.17,11.29-.17,21.93,3.9,13.89,16.78Z"/>
      <path class="cls-1" d="M174.49,327.01c1.18,5.05,6.77,9.03,16.71,11.92h64.48c-17.05-4.71-25.94-10.77-26.99-18.29-2.26-16.25,33.09-37.74,108.05-65.69.59-.22,1.25.08,1.47.67.22.59-.08,1.25-.67,1.47-72.78,27.14-108.64,48.42-106.58,63.24,1.06,7.68,12.58,13.91,34.31,18.6h61.04c1.34-1.54,3.31-3.04,5.68-4.23,2.43-1.22,4.87-1.9,6.94-2.03v-15.05c-23.48,3.4-41.11,5.18-52.44,5.27-.35,0-.7,0-1.04,0-10.06,0-14.95-1.35-15.82-4.34-1.95-6.78,19.6-16.24,25.47-18.41,16.41-6.04,33.25-9.5,43.82-9.28v-69.09c-56.57,25.32-99.12,47.06-126.46,64.63-27.38,17.58-40.15,31.24-37.97,40.61Z"/>
      <path class="cls-1" d="M310.03,205.04c-28.36,19.75-63.65,44.33-91.82,55.9-50.15,20.6-87.29,29.26-120.31,29.26s-63.21-9.04-97.89-23.62v37.61c22.25,11.86,45.55,21.25,69.24,27.92,9.64,2.72,19.38,4.97,29.17,6.8h85.92c-6.99-2.95-10.98-6.74-12.06-11.4-4.79-20.56,49.74-55.98,166.65-108.25v-33.96c-8.5,5.54-18.33,12.38-28.9,19.74Z"/>
      <path class="cls-1" d="M156.25,57.8c27.37-20.36,55.47-41.25,95.71-57.8h-69.94c-10.77,13.22-22.48,25.7-34.9,37.16-11.12,10.26-41.92,36.61-87.79,59.49-19.04,9.5-38.95,17.48-59.34,23.85v11.24c76.05-14.29,115.2-43.4,156.25-73.95Z"/>
      <path class="cls-1" d="M179.06,0h-81c-1.05,7.13-2.77,14.11-5.11,20.74C75.71,69.49,27.81,92.57,0,102.14v15.97c20.03-6.3,39.6-14.16,58.32-23.5,45.6-22.75,76.21-48.93,87.26-59.12,11.89-10.97,23.11-22.89,33.49-35.49Z"/>
      <path class="cls-1" d="M295.96,302.48c-12.46,4.59-24.77,12.49-23.94,15.37.18.62,1.76,2.65,14.43,2.53,11.28-.1,28.92-1.88,52.47-5.3v-21.7c-9.31-.19-25.19,2.55-42.96,9.1Z"/>
      <path class="cls-1" d="M90.8,19.97c2.26-6.39,3.92-13.1,4.95-19.97H31.47c4.24,3.5,6.89,7.48,7.91,11.88,3.63,15.7-12.63,36.64-39.38,51.77v36.08c27.53-9.59,74.03-32.32,90.8-79.75Z"/>
      <path class="cls-1" d="M216.21,65.46c46.73-20.13,90.95-39.17,121.24-65.46h-79.36c-42.85,16.77-72.06,38.48-100.48,59.63C116.25,90.4,76.81,119.74,0,134.07v71.72c60.81-73.39,143.12-108.85,216.21-140.33Z"/>
      <path class="cls-1" d="M37.1,12.41c-1.07-4.64-4.28-8.8-9.53-12.41H0v60.98C28.06,44.9,40.01,24.98,37.1,12.41Z"/>
      <path class="cls-1" d="M68.59,334.44c-23.46-6.6-46.52-15.86-68.59-27.52v32h86.39c-5.96-1.33-11.9-2.82-17.8-4.48Z"/>
      <path class="cls-1" d="M198.62,143.15c0,2.2.85,3.95,2.45,5.06,3.43,2.38,9.96,1.96,18.41-1.19,26.71-9.96,30.48-10.52,55.04-14.17l2.1-.31c20.2-3,41.13-3.55,62.3-1.65v-16.17c-9.41-3.48-31.59.86-49.62,4.38-11.57,2.26-19.32,3.72-23.82,3.72-1.91,0-3.24-.26-4.03-.83-.53-.38-.85-.9-.92-1.51-.19-1.55.48-3.22,2.01-4.97,9.32-10.68,52.45-25.62,76.39-26.73v-21.38c-85.46,32.23-140.3,61.78-140.3,75.76Z"/>
      <path class="cls-1" d="M264.25,117c-1.07,1.22-1.58,2.33-1.47,3.19,1.38,1.5,15.07-1.18,26.07-3.33,17.79-3.48,39.55-7.73,50.06-4.53v-21.28c-23.09,1.13-65.84,15.83-74.67,25.95Z"/>
    </g>
  </g>
</svg>