<svg width="441" height="343" viewBox="0 0 441 343" fill="none" xmlns="http://www.w3.org/2000/svg">
<g opacity="0.04">
<path d="M21.485 181.25C21.9821 179.63 26.945 179.269 28.4362 179.126C45.7124 177.529 63.2597 178.087 80.1745 173.771C78.7963 170.435 69.8494 177.145 70.5724 171.663C75.0759 171.745 80.3401 166.511 82.7802 163.055C93.9111 147.315 98.5427 125.535 110.69 109.908C150.176 59.1036 221.668 42.9646 280.124 70.5131C309.57 84.3929 330.145 109.072 348.046 135.152C364.238 158.732 360.585 166.504 393.526 171.52C399.483 172.423 407.684 171.143 413.129 174.321C397.698 175.052 373.222 175.127 359.034 168.658C355.035 166.835 351.902 161.322 348.039 162.58C350.245 165.096 352.956 167.008 355.856 168.628C374.638 179.096 401.615 175.308 422.204 176.972C423.455 177.07 426.994 177.296 427.002 179.111H374.714L383.743 181.287C419.584 183.283 460.492 178.915 495.715 183.501C496.867 183.652 500.708 183.916 500.633 185.497L419.538 184.45L439.812 188.713C439.413 190.648 437.711 190.694 436.114 190.874C423.763 192.26 408.197 191.326 395.477 191.861C264.557 197.366 133.698 197.253 2.8457 191.861C-20.7114 190.889 -46.4073 191.989 -69.6331 188.57C-72.4045 188.163 -80.8694 187.177 -82.0367 184.962C-82.4961 183.095 -81.3288 183.253 -79.9506 182.846C-72.5551 180.685 -70.0247 184.42 -63.7513 185.889C-49.9243 189.127 -33.3033 188.382 -19.0847 188.698L-52.1535 185.497C-52.5828 184.367 -48.6365 183.373 -48.4257 183.373H-28.1521C-27.9412 183.373 -23.9874 182.379 -24.4242 181.25L-34.0188 180.18L5.45896 179.111L-4.13559 182.289L50.841 183.366L52.4226 181.235H21.4775L21.485 181.25ZM262.659 78.9103C236.052 70.0462 206.402 69.9182 179.652 78.594L167.693 84.2197C188.629 77.7354 210.093 73.1716 232.241 74.6477C241.429 75.2577 250.421 77.8409 259.413 79.4977C260.52 79.701 262.908 80.8985 262.659 78.9178V78.9103ZM340.56 155.659C337.367 148.889 335.371 141.448 332.216 134.685C326.402 122.214 312.349 105.578 300.962 97.6776C297.355 95.1698 291.443 92.0745 287.21 90.6361C291.526 96.194 299.26 99.5378 304.313 103.921C309.864 108.733 321.454 122.553 325.453 128.6C330.883 136.801 333.285 148.828 340.553 155.659H340.56ZM299.358 144.611C261.914 79.076 167.407 84.0013 134.293 149.536C132.538 153.008 123.922 179.231 122.333 179.096C120.292 174.411 119.667 177.16 118.199 176.761C113.921 175.579 116.256 162.286 114.87 158.867C107.949 166.391 105.757 177.318 94.3328 179.932C91.4258 180.594 85.9959 179.194 84.4521 182.304L139.195 182.372C143.533 178.192 142.313 172.506 143.639 167.347C163.566 90.0939 264.587 82.8791 301.06 151.118L306.957 163.115C306.445 157.391 303.749 150.817 301.052 145.786C300.699 145.131 299.546 144.935 299.358 144.604V144.611ZM299.358 157.406C263.51 87.8647 166.684 91.7883 147.894 167.34C146.832 171.625 147.336 180.677 143.752 183.456C142.313 184.571 139.82 183.69 139.948 185.505L308.553 183.373C304.178 178.975 305.262 172.514 303.764 166.316C302.619 161.601 300.857 160.313 299.358 157.406Z" fill="#BE7F4A"/>
<path d="M119.374 208.211C121.663 210.161 125.489 218.656 127.153 221.752H129.269L128.735 216.435L134.601 223.89L133.005 215.373C140.581 222.919 144.949 233.116 152.201 240.971C185.579 277.142 247.333 278.423 282.985 244.729C286.156 241.731 297.219 225.464 299.501 224.967L301.903 226.534L301.098 229.222L307.484 224.96L308.026 229.222L317.824 211.208C318.683 210.945 334.287 212.88 335.567 213.445C339.077 215.004 335.59 224.274 334.663 227.053C302.265 324.565 156.072 332.917 107.746 244.872C102.707 235.692 99.6874 224.847 100.456 214.296L113.319 213.799C116.158 211.351 109.915 208.218 111.142 206.848C113.522 205.869 117.461 206.584 119.381 208.211H119.374ZM131.386 264.415C128.524 261.869 129.028 266.674 133.012 269.732C142.946 277.361 153.18 285.042 164.846 290.171C206.598 308.517 258.833 304.668 294.681 275.599C293.74 273.927 292.271 275.953 291.36 276.547C287.256 279.244 283.46 282.226 279.084 284.538C232.799 308.991 172.761 302.507 133.449 268.218C131.973 266.93 131.566 264.573 131.393 264.415H131.386ZM246.656 283.612C230.999 286.3 215.906 285.939 200.219 284.673C199.044 284.576 196.235 283.89 196.506 285.72C210.439 288.213 225.26 289.23 239.23 286.308C241.12 285.909 245.752 285.321 246.656 283.612Z" fill="#BE7F4A"/>
<path d="M300.676 217.12C295.841 224.674 289.342 234.856 282.436 240.978C245.993 273.249 190.007 268.504 158.452 232.062C156.78 230.134 149.822 218.98 149.535 216.969C149.212 214.687 151.606 214.8 152.616 215.516C153.113 215.862 156.539 224.041 158.136 226.27C193.381 275.455 268.857 270.643 297.054 217.165C297.746 215.855 297.754 213.37 297.904 213.241C298.846 212.413 303.38 212.918 300.683 217.135L300.676 217.12Z" fill="#BE7F4A"/>
<path d="M322.433 203.647C325.845 203.022 328.443 202.043 330.943 205.236C328.639 208.399 325.28 206.185 322.433 205.763V208.166L319.225 208.956L321.371 200.446L322.433 203.647Z" fill="#BE7F4A"/>
</g>
</svg>
