<svg xmlns="http://www.w3.org/2000/svg" id="a" viewBox="0 0 63.08 69.97"><defs><style>.c{fill:#fff;}.d{fill:#a0bbe2;}.e{fill:#5685c4;}</style></defs><path class="e" d="m31.73,69.97l-26.01-7.06L0,0h63.08l-5.44,63.05s-25.91,6.92-25.91,6.92Z"/><path class="d" d="m31.83,5.17h25.74l-4.93,53.99-20.91,5.58s.1-59.57.1-59.57Z"/><g id="b"><path class="c" d="m52.59,56.31c-.09-.08-.16-.14-.23-.21-.51-.36-1.02-.72-1.52-1.09-.8-.6-1.64-1.13-2.57-1.54-1.86-.83-3.61-1.85-5.08-3.3-.62-.62-1.04-1.37-1.39-2.16-.14-.32.04-.58.33-.67,1.31-.4,2.59-.91,3.99-1,.96-.06,1.93-.17,2.92-.16-.09-.37-.35-.57-.6-.75-1.54-1.06-3.08-2.11-4.65-3.13-.45-.29-.99-.44-1.49-.62-.88-.33-1.78-.6-2.68-.89s-1.44-.96-1.9-1.75c-.67-1.17-1.2-2.4-1.76-3.62-.71-1.55-1.49-3.07-2.11-4.65-.57-1.47-1.3-2.85-2.16-4.16-.49-.74-1.05-1.42-1.57-2.13-1.01-1.38-2.27-2.52-3.51-3.67-.91-.85-1.97-1.55-3.01-2.25-1.43-.95-2.97-1.66-4.56-2.25-.46-.17-.95-.26-1.44-.23-.86.04-1.71-.16-2.56-.22-.37-.03-.67-.39-.95-.66-.83-.79-1.86-1.2-2.89-1.62-.54-.22-1.05-.52-1.64-.62-.26-.05-.51-.08-.75-.05-.68.06-.87.6-.67,1.37.18.7.62,1.27,1.06,1.82,1.04,1.31,2.11,2.61,2.7,4.2.46,1.23.86,2.49,1.26,3.75.23.72.58,1.39.91,2.07.06.09.1.14.18.27.15.23.6.9,1,1.25.3.26.45.6.62.93.17.32-.08.58-.11.87-.07.59-.25,1.16-.56,1.68-.04.06-.07.1-.1.19-.32,1.09-.52,2.2-.6,3.34-.04.52-.03.82-.01,1.36,0,.11.01.24.04.41.1,1.28.16,2.56.8,3.72.04.11.13.28.17.4.06.14.35.71.56,1.08.09.16.27.35.4.45.17.15.39.39.64.18.21-.18.21-.53.16-.86-.08-.56.09-1.12.17-1.68.15-1.07.39-2.12,1.03-3.02.27-.38.58-.74.89-1.12.1-.12.29-.11.37.03.18.31.22.67.31,1.01.01.04.02.1.04.14.06.17.37.73.56,1.16.41.9.84,1.8,1.32,2.67.8,1.44,1.67,2.85,2.61,4.2.57.81,1.22,1.56,1.92,2.26.05.04.06.05.11.08.15.11.43.34.6.46-.5-.09-.76-.29-.92-.46-1.11-1.17-2.48-2.06-3.55-3.25-.35-.39-.92-1.19-1.05-1.34-.11-.14-.63-.68-.86-1.08-.41-.73-.76-1.49-1.19-2.37-.32,1.22-.45,2.33-.66,3.42-.03.1-.05.18-.08.28-.25.68-.53,1.11-1.11,1.14-.23,0-.49.03-.74,0-1.05-.09-1.59-.81-2.13-1.55-.94-1.32-1.41-2.82-1.63-4.4-.14-1.02-.19-2.05-.14-3.08.07-1.41.33-2.78.81-4.12.17-.48.18-1.01.38-1.49.09-.2.02-.5-.13-.66-1.08-1.07-1.7-2.43-2.26-3.8-.58-1.41-1.07-2.84-1.48-4.32-.24-.86-.88-1.51-1.39-2.23-.65-.91-1.41-1.74-1.96-2.72-.67-1.19-.71-2.36.12-3.49.41-.56,1.01-.78,1.69-.82,1.28-.07,2.46.3,3.59.83,1.07.5,2.12,1.04,2.98,1.89.28.28.67.38,1.08.37,1.98-.04,3.89.38,5.64,1.29,1.66.86,3.18,1.96,4.67,3.08,1.39,1.04,2.62,2.25,3.78,3.53,1.05,1.15,1.98,2.42,2.87,3.7,1.1,1.57,1.78,3.33,2.53,5.07.8,1.85,1.59,3.7,2.58,5.46.37.67.57,1.42,1.05,2.04.23.3.46.54.81.69,1.1.47,2.22.92,3.27,1.48,1.17.63,2.27,1.38,3.33,2.2.98.76,1.99,1.47,2.84,2.38.4.43.73.91,1.1,1.37.08.1.1.2-.01.26-.1.06-.17.1-.23.13-.69.3-1.41.5-2.16.58-1.14.12-2.27.28-3.36.65-.13.04-.27.08-.4.12-.04.01-.09.03-.15.05-.15.05-.22.23-.15.37.03.06.07.12.11.17.75.87,1.75,1.39,2.73,1.95.7.4,1.34.88,1.92,1.44.73.71,1.44,1.44,2.09,2.24.33.41.78.72.99,1.23.02.06.14.35.17.48Z"/><path class="c" d="m17.55,21.95c-.38-1.06-1.02-1.95-1.79-2.9.58.1.98-.25,1.4-.01.51.28.87.7,1.12,1.22.2.41-.13,1.19-.73,1.7Z"/></g></svg>