<svg xmlns="http://www.w3.org/2000/svg" xmlns:xlink="http://www.w3.org/1999/xlink" version="1.1" id="a" x="0px" y="0px" viewBox="0 0 63.1 70" style="enable-background:new 0 0 63.1 70;" xml:space="preserve">
<style type="text/css">
	.st0{fill:#5685C4;}
	.st1{fill:#A0BBE2;}
	.st2{fill:#FFFFFF;}
	.st3{fill:#0F0F0F;}
</style>
    <path class="st0" d="M31.7,70l-26-7.1L0,0h63.1l-5.4,63C57.6,63,31.7,70,31.7,70z"/>
    <path class="st1" d="M31.8,5.2h25.7l-4.9,54l-20.9,5.6C31.7,64.7,31.8,5.2,31.8,5.2z"/>
    <g>
	<path class="st2" d="M37.5,29.9c-2-4.7-3.6-8.8-2-11.6c0.6-0.9,1.3-1.3,2.1-1.3c1.5,0,3,1.7,3,1.7l2,2.4l-1.2-2.8   c-0.1-0.2-2.2-5-6-5c-1.3,0-2.7,0.6-4,1.8l0,0c-3.3,3.8-0.1,11,2.8,17.3l0,0l2.1,4.9c0,0,0.2,0.2,0,0c1,2.5,1.9,5.5,1.3,7.7   c-0.9,3.5-4,5.8-4,5.8l-2,1.5l2.4-0.8c0.2-0.1,5.5-1.8,6.8-6.4c0.8-3.8-0.2-7.5-1.2-10.4c0.1-0.1-0.1,0.1,0,0L37.6,30"/>
        <path class="st3" d="M43.4,16.5l-2.5-2.7l1.8,3.2c0,0,2.2,4-0.5,8.7c-1,1.5-2.5,2.9-4.5,4.3L34,32.4c0-0.1,0,0,0,0l-0.1,0.1l0,0   c-4,2.3-7.6,3.7-7.7,3.7c-5.5,2.5-8.9,6.2-9.4,10.4c-0.4,3.2,1.1,6.3,4,8.4l0,0c1.8,1.1,3.8,1.7,5.9,1.7c5.4,0,9.7-3.8,9.8-3.9   l2.7-2.4L36,52.1c0,0-2.7,1.4-5.4,1.4c-2.5,0-4.2-1.1-5.2-3.2c-1.3-4.6,3.3-7.8,8.5-11.4c0.7-0.5,1.4-1,2.1-1.5l0,0l3.1-2.3   c0-0.1,0.1-0.1,0.1-0.1c2.6-2.1,6-5.5,6.8-10.2C46.8,20.4,43.5,16.7,43.4,16.5L43.4,16.5z"/>
</g>
</svg>
