<svg xmlns="http://www.w3.org/2000/svg" xmlns:xlink="http://www.w3.org/1999/xlink" version="1.1" id="Calque_1" x="0px" y="0px" viewBox="0 0 72 72" style="enable-background:new 0 0 72 72;" xml:space="preserve">
<style type="text/css">
	.st0{fill:#3178C6;}
	.st1{fill-rule:evenodd;clip-rule:evenodd;fill:#FFFFFF;}
</style>
    <g id="Typescript" transform="translate(-0.015 -0.014)">
	<path id="Rectangle_287" class="st0" d="M36,0L36,0c19.9,0,36,16.1,36,36l0,0c0,19.9-16.1,36-36,36l0,0C16.1,72,0,55.9,0,36l0,0   C0,16.1,16.1,0,36,0z"/>
        <rect id="Rectangle_288" x="0" y="0" class="st0" width="72" height="72"/>
        <path id="Tracé_2622" class="st1" d="M44.6,57.3v7c1.3,0.6,2.7,1.1,4.1,1.3c1.6,0.3,3.3,0.4,4.9,0.4c1.6,0,3.2-0.2,4.8-0.5   c1.4-0.3,2.8-0.8,4-1.6c1.1-0.7,2.1-1.7,2.7-2.9c1.2-2.4,1.3-5.2,0.4-7.8c-0.4-1-0.9-1.8-1.7-2.6c-0.8-0.8-1.6-1.5-2.6-2   c-1.1-0.6-2.2-1.2-3.4-1.7c-0.9-0.4-1.8-0.8-2.5-1.1c-0.7-0.3-1.3-0.7-1.9-1.1c-0.5-0.3-0.9-0.7-1.2-1.2c-0.3-0.4-0.4-0.9-0.4-1.4   c0-0.5,0.1-0.9,0.4-1.3c0.3-0.4,0.6-0.8,1.1-1c0.5-0.3,1.1-0.5,1.7-0.6c0.7-0.2,1.5-0.2,2.2-0.2c0.6,0,1.2,0,1.9,0.1   c0.7,0.1,1.3,0.2,2,0.4c0.7,0.2,1.3,0.4,1.9,0.7c0.6,0.3,1.2,0.6,1.7,1v-6.6c-1.1-0.4-2.3-0.7-3.5-0.9c-1.4-0.2-2.9-0.3-4.4-0.3   c-1.6,0-3.2,0.2-4.8,0.5c-1.4,0.3-2.7,0.9-4,1.7c-1.1,0.7-2,1.7-2.7,2.9c-0.7,1.3-1,2.8-1,4.2c-0.1,1.9,0.6,3.9,1.8,5.4   c1.5,1.7,3.4,3,5.5,3.8c1,0.4,1.9,0.8,2.7,1.2c0.8,0.3,1.5,0.7,2.2,1.2c0.6,0.4,1,0.8,1.4,1.3c0.4,0.5,0.5,1.1,0.5,1.6   c0,0.4-0.1,0.9-0.3,1.3c-0.2,0.4-0.6,0.8-1,1c-0.5,0.3-1.1,0.5-1.7,0.7c-0.8,0.2-1.6,0.3-2.3,0.2c-1.5,0-3.1-0.3-4.5-0.8   C47.2,59.2,45.8,58.4,44.6,57.3L44.6,57.3z M32.7,40h9v-5.8H16.6V40h9v25.7h7.2L32.7,40z"/>
</g>
</svg>