<svg width="645" height="645" viewBox="0 0 645 645" fill="none" class="paragraphs-list__svg" xmlns="http://www.w3.org/2000/svg">
<g clip-path="url(#clip0_1120_2617)">
<path d="M322.5 0V102.038" stroke="#4B4B4B" stroke-miterlimit="10"/>
<path d="M277.585 3.13721L291.786 104.185" stroke="#4B4B4B" stroke-miterlimit="10"/>
<path d="M233.553 12.5034L261.665 110.597" stroke="#4B4B4B" stroke-miterlimit="10"/>
<path d="M191.256 27.9158L232.731 121.136" stroke="#4B4B4B" stroke-miterlimit="10"/>
<path d="M151.517 49.0542L205.548 135.588" stroke="#4B4B4B" stroke-miterlimit="10"/>
<path d="M115.095 75.5383L180.633 153.696" stroke="#4B4B4B" stroke-miterlimit="10"/>
<path d="M82.7065 106.82L158.488 175.109" stroke="#4B4B4B" stroke-miterlimit="10"/>
<path d="M54.9902 142.32L139.538 199.385" stroke="#4B4B4B" stroke-miterlimit="10"/>
<path d="M32.4795 181.338L124.135 226.067" stroke="#4B4B4B" stroke-miterlimit="10"/>
<path d="M15.6162 223.097L112.614 254.622" stroke="#4B4B4B" stroke-miterlimit="10"/>
<path d="M4.7334 266.806L105.156 284.518" stroke="#4B4B4B" stroke-miterlimit="10"/>
<path d="M0.0302734 311.596L101.944 315.159" stroke="#4B4B4B" stroke-miterlimit="10"/>
<path d="M1.59766 356.614L103.01 345.954" stroke="#4B4B4B" stroke-miterlimit="10"/>
<path d="M9.4209 400.978L108.367 376.291" stroke="#4B4B4B" stroke-miterlimit="10"/>
<path d="M23.332 443.818L117.88 405.592" stroke="#4B4B4B" stroke-miterlimit="10"/>
<path d="M43.0576 484.298L131.365 433.279" stroke="#4B4B4B" stroke-miterlimit="10"/>
<path d="M68.2319 521.641L148.594 458.819" stroke="#4B4B4B" stroke-miterlimit="10"/>
<path d="M98.3525 555.115L169.187 481.709" stroke="#4B4B4B" stroke-miterlimit="10"/>
<path d="M132.842 584.067L192.779 501.523" stroke="#4B4B4B" stroke-miterlimit="10"/>
<path d="M171.014 607.931L218.881 517.849" stroke="#4B4B4B" stroke-miterlimit="10"/>
<path d="M212.139 626.253L247.023 530.383" stroke="#4B4B4B" stroke-miterlimit="10"/>
<path d="M255.41 638.68L276.611 538.866" stroke="#4B4B4B" stroke-miterlimit="10"/>
<path d="M299.989 644.939L307.097 543.16" stroke="#4B4B4B" stroke-miterlimit="10"/>
<path d="M345.011 644.939L337.888 543.16" stroke="#4B4B4B" stroke-miterlimit="10"/>
<path d="M389.59 638.68L368.389 538.866" stroke="#4B4B4B" stroke-miterlimit="10"/>
<path d="M432.861 626.253L397.977 530.383" stroke="#4B4B4B" stroke-miterlimit="10"/>
<path d="M473.986 607.931L426.104 517.849" stroke="#4B4B4B" stroke-miterlimit="10"/>
<path d="M512.159 584.067L452.222 501.523" stroke="#4B4B4B" stroke-miterlimit="10"/>
<path d="M546.647 555.115L475.797 481.709" stroke="#4B4B4B" stroke-miterlimit="10"/>
<path d="M576.768 521.641L496.406 458.819" stroke="#4B4B4B" stroke-miterlimit="10"/>
<path d="M601.942 484.298L513.62 433.279" stroke="#4B4B4B" stroke-miterlimit="10"/>
<path d="M621.667 443.818L527.12 405.592" stroke="#4B4B4B" stroke-miterlimit="10"/>
<path d="M635.579 400.978L536.632 376.291" stroke="#4B4B4B" stroke-miterlimit="10"/>
<path d="M643.402 356.614L541.975 345.954" stroke="#4B4B4B" stroke-miterlimit="10"/>
<path d="M644.969 311.596L543.055 315.159" stroke="#4B4B4B" stroke-miterlimit="10"/>
<path d="M640.266 266.806L539.844 284.518" stroke="#4B4B4B" stroke-miterlimit="10"/>
<path d="M629.369 223.097L532.386 254.622" stroke="#4B4B4B" stroke-miterlimit="10"/>
<path d="M612.505 181.338L520.849 226.067" stroke="#4B4B4B" stroke-miterlimit="10"/>
<path d="M589.994 142.32L505.461 199.385" stroke="#4B4B4B" stroke-miterlimit="10"/>
<path d="M562.293 106.82L486.497 175.109" stroke="#4B4B4B" stroke-miterlimit="10"/>
<path d="M529.905 75.5383L464.352 153.696" stroke="#4B4B4B" stroke-miterlimit="10"/>
<path d="M493.483 49.0542L439.452 135.588" stroke="#4B4B4B" stroke-miterlimit="10"/>
<path d="M453.743 27.9158L412.269 121.136" stroke="#4B4B4B" stroke-miterlimit="10"/>
<path d="M411.431 12.5034L383.335 110.597" stroke="#4B4B4B" stroke-miterlimit="10"/>
<path d="M367.4 3.13721L353.214 104.185" stroke="#4B4B4B" stroke-miterlimit="10"/>
<path d="M322.5 543.693C444.385 543.693 543.192 444.825 543.192 322.865C543.192 200.906 444.385 102.038 322.5 102.038C200.615 102.038 101.808 200.906 101.808 322.865C101.808 444.825 200.615 543.693 322.5 543.693Z" fill="#1F1F1D" fill-opacity="0.1" stroke="#4B4B4B" stroke-miterlimit="10"/>
</g>
<defs>
<clipPath id="clip0_1120_2617">
<rect width="645" height="645" fill="white"/>
</clipPath>
</defs>
</svg>
